M48
; DRILL file {KiCad (7.0.0-0)} date Thursday, 23. March 2023 at 21:01:45
; FORMAT={-:-/ absolute / inch / decimal}
; #@! TF.CreationDate,2023-03-23T21:01:45+01:00
; #@! TF.GenerationSoftware,Kicad,Pcbnew,(7.0.0-0)
; #@! TF.FileFunction,Plated,1,4,PTH
FMAT,2
INCH
; #@! TA.AperFunction,Plated,PTH,ViaDrill
T1C0.0118
; #@! TA.AperFunction,Plated,PTH,ViaDrill
T2C0.0157
; #@! TA.AperFunction,Plated,PTH,ViaDrill
T3C0.0197
; #@! TA.AperFunction,Plated,PTH,ComponentDrill
T4C0.0236
; #@! TA.AperFunction,Plated,PTH,ComponentDrill
T5C0.0394
; #@! TA.AperFunction,Plated,PTH,ComponentDrill
T6C0.1260
%
G90
G05
T1
X2.7756Y-3.0354
X2.8031Y-2.5984
X2.8071Y-2.8228
X3.2323Y-1.3543
X3.2323Y-1.5768
X3.2323Y-1.813
X3.2323Y-2.0492
X3.2323Y-2.252
X3.2323Y-2.4803
X3.2323Y-2.7047
X3.2323Y-2.9294
X3.2323Y-3.1437
X3.3863Y-1.3543
X3.3863Y-1.5748
X3.3863Y-1.811
X3.3863Y-2.0472
X3.3863Y-2.252
X3.3863Y-2.4803
X3.3863Y-2.7047
X3.3863Y-2.9291
X3.3863Y-3.1417
X3.4257Y-1.4252
X3.4257Y-1.6575
X3.4257Y-1.8937
X3.4257Y-2.1063
X3.4257Y-2.3346
X3.4257Y-2.563
X3.4257Y-2.7874
X3.4257Y-2.9882
X3.4882Y-1.2913
X3.6929Y-1.9764
X3.7008Y-1.7441
X3.8504Y-2.4094
X3.9094Y-2.4094
X3.9193Y-1.9626
X3.9488Y-2.4094
X4.0079Y-2.0551
X4.0433Y-2.0538
X4.0787Y-2.4016
X4.0905Y-2.0538
X4.1102Y-2.0906
X4.1102Y-2.122
X4.2157Y-2.1169
X4.2165Y-2.1496
X4.2165Y-2.2087
X4.2165Y-2.2441
X4.2165Y-2.3898
X4.2168Y-2.3579
X4.252Y-2.2441
X4.2913Y-2.4488
X4.3504Y-2.2402
X4.3504Y-2.3701
X4.9874Y-2.2685
X4.9882Y-2.4094
X4.9891Y-2.0828
X4.9911Y-2.181
X4.9938Y-2.1338
X4.9965Y-2.2362
X5.0197Y-2.1142
X5.0197Y-2.2008
X5.0197Y-2.439
X5.0202Y-2.161
X5.0504Y-1.8866
X5.061Y-2.439
X5.0818Y-2.0757
X5.0906Y-2.4094
X5.1685Y-2.0706
X5.1809Y-2.3023
X5.1981Y-1.8433
X5.2087Y-2.1654
X5.2087Y-2.2008
X5.2196Y-2.1031
X5.3189Y-2.0551
X5.3378Y-1.8433
X5.5041Y-1.9173
X5.7268Y-1.7338
X6.4297Y-2.2559
X6.5276Y-2.8646
X6.5276Y-2.9094
X6.5276Y-2.9488
X6.5551Y-2.9921
T2
X2.2441Y-0.7874
X2.2441Y-3.622
X2.4016Y-0.7874
X2.4016Y-3.622
X2.5591Y-0.7874
X2.5591Y-3.622
X2.5984Y-1.1614
X2.5984Y-3.1614
X2.7165Y-0.7874
X2.7165Y-3.622
X2.874Y-0.7874
X2.874Y-3.622
X2.9218Y-1.362
X2.9218Y-1.5844
X2.9218Y-1.8206
X2.9218Y-2.0568
X2.9218Y-2.2596
X2.9218Y-2.4879
X2.9218Y-2.7124
X2.9218Y-2.937
X2.9218Y-3.1513
X3.0315Y-0.7874
X3.0315Y-3.622
X3.0984Y-1.3583
X3.0984Y-1.5807
X3.0984Y-1.8169
X3.0984Y-2.0531
X3.0984Y-2.2559
X3.0984Y-2.4843
X3.0984Y-2.7087
X3.0984Y-2.9333
X3.0984Y-3.1476
X3.189Y-0.7874
X3.189Y-3.622
X3.3465Y-0.7874
X3.3465Y-3.622
X3.5039Y-0.7874
X3.5039Y-3.622
X3.5984Y-1.1614
X3.5984Y-3.1614
X3.6614Y-0.7874
X3.6614Y-2.5787
X3.6614Y-2.6614
X3.6614Y-3.622
X3.8189Y-0.7874
X3.8189Y-3.622
X3.8583Y-1.7717
X3.8602Y-2.7146
X3.8622Y-2.6181
X3.9409Y-1.7717
X3.9764Y-0.7874
X3.9764Y-3.622
X4.0079Y-2.7008
X4.0906Y-2.7008
X4.0984Y-1.1614
X4.0984Y-1.6614
X4.0984Y-3.1614
X4.1043Y-1.7736
X4.1063Y-1.8543
X4.1339Y-0.7874
X4.1339Y-3.622
X4.2598Y-2.5039
X4.2913Y-0.7874
X4.2913Y-3.622
X4.3307Y-1.9331
X4.3307Y-2.0157
X4.4488Y-0.7874
X4.4488Y-3.622
X4.4764Y-2.0276
X4.5984Y-1.1614
X4.5984Y-1.6614
X4.5984Y-3.1614
X4.6063Y-0.7874
X4.6063Y-3.622
X4.7638Y-0.7874
X4.7638Y-3.622
X4.9055Y-2.3937
X4.9094Y-1.9646
X4.9213Y-0.7874
X4.9213Y-3.622
X4.9677Y-1.8847
X5.0248Y-1.6878
X5.0787Y-0.7874
X5.0787Y-3.622
X5.0984Y-1.1614
X5.202Y-1.7587
X5.2362Y-0.7874
X5.2362Y-3.622
X5.2441Y-2.3504
X5.2441Y-2.4252
X5.3937Y-0.7874
X5.3937Y-3.622
X5.3956Y-2.0118
X5.3956Y-2.0984
X5.3976Y-2.1811
X5.4055Y-2.3543
X5.5236Y-2.6496
X5.5512Y-0.7874
X5.5512Y-3.622
X5.5984Y-1.1614
X5.7087Y-0.7874
X5.7087Y-3.622
X5.8661Y-0.7874
X5.8661Y-3.622
X6.0236Y-0.7874
X6.0236Y-3.622
X6.0984Y-1.1614
X6.0984Y-1.6614
X6.0984Y-3.1614
X6.1811Y-0.7874
X6.1811Y-3.622
X6.2283Y-3.0354
X6.252Y-2.2795
X6.3386Y-0.7874
X6.3386Y-3.622
X6.4961Y-0.7874
X6.4961Y-3.622
X6.5045Y-2.3307
X6.5085Y-2.0709
X6.5472Y-2.6496
X6.5984Y-1.1614
X6.6535Y-0.7874
X6.6535Y-3.622
X6.6693Y-3.0394
X6.6732Y-2.5591
T3
X3.7953Y-2.7283
X3.8976Y-1.9094
X5.1299Y-3.0827
X5.2441Y-2.5236
X5.3332Y-2.9446
X5.7008Y-3.1558
X5.7047Y-2.7543
X5.7096Y-2.6043
X5.7843Y-3.0275
X6.5689Y-1.4941
X6.6614Y-1.9803
T5
X2.4016Y-1.8774
X2.4016Y-1.9864
X2.4016Y-2.0955
X2.4016Y-2.2045
X2.4016Y-2.3136
X2.4016Y-2.4226
X2.4016Y-2.5317
X2.5134Y-1.8228
X2.5134Y-1.9319
X2.5134Y-2.0409
X2.5134Y-2.15
X2.5134Y-2.2591
X2.5134Y-2.3681
X2.5134Y-2.4772
X2.5134Y-2.5862
T6
X2.4575Y-1.549
X2.4575Y-2.86
T4
G00X6.5531Y-2.0346
M15
G01X6.5965Y-2.0346
M16
G05
G00X6.5531Y-2.3748
M15
G01X6.5965Y-2.3748
M16
G05
G00X6.7236Y-2.0346
M15
G01X6.7551Y-2.0346
M16
G05
G00X6.7236Y-2.3748
M15
G01X6.7551Y-2.3748
M16
G05
T0
M30
