%TF.GenerationSoftware,KiCad,Pcbnew,(7.0.0-0)*%
%TF.CreationDate,2023-03-23T21:01:42+01:00*%
%TF.ProjectId,SimpleECG_v0,53696d70-6c65-4454-9347-5f76302e6b69,rev?*%
%TF.SameCoordinates,Original*%
%TF.FileFunction,Paste,Top*%
%TF.FilePolarity,Positive*%
%FSLAX46Y46*%
G04 Gerber Fmt 4.6, Leading zero omitted, Abs format (unit mm)*
G04 Created by KiCad (PCBNEW (7.0.0-0)) date 2023-03-23 21:01:42*
%MOMM*%
%LPD*%
G01*
G04 APERTURE LIST*
G04 Aperture macros list*
%AMRoundRect*
0 Rectangle with rounded corners*
0 $1 Rounding radius*
0 $2 $3 $4 $5 $6 $7 $8 $9 X,Y pos of 4 corners*
0 Add a 4 corners polygon primitive as box body*
4,1,4,$2,$3,$4,$5,$6,$7,$8,$9,$2,$3,0*
0 Add four circle primitives for the rounded corners*
1,1,$1+$1,$2,$3*
1,1,$1+$1,$4,$5*
1,1,$1+$1,$6,$7*
1,1,$1+$1,$8,$9*
0 Add four rect primitives between the rounded corners*
20,1,$1+$1,$2,$3,$4,$5,0*
20,1,$1+$1,$4,$5,$6,$7,0*
20,1,$1+$1,$6,$7,$8,$9,0*
20,1,$1+$1,$8,$9,$2,$3,0*%
G04 Aperture macros list end*
%ADD10RoundRect,0.250000X-0.262500X-0.450000X0.262500X-0.450000X0.262500X0.450000X-0.262500X0.450000X0*%
%ADD11RoundRect,0.243750X-0.243750X-0.456250X0.243750X-0.456250X0.243750X0.456250X-0.243750X0.456250X0*%
%ADD12RoundRect,0.243750X0.243750X0.456250X-0.243750X0.456250X-0.243750X-0.456250X0.243750X-0.456250X0*%
%ADD13RoundRect,0.250000X0.475000X-0.250000X0.475000X0.250000X-0.475000X0.250000X-0.475000X-0.250000X0*%
%ADD14R,1.700000X0.900000*%
%ADD15RoundRect,0.250000X-0.475000X0.250000X-0.475000X-0.250000X0.475000X-0.250000X0.475000X0.250000X0*%
%ADD16RoundRect,0.250000X0.262500X0.450000X-0.262500X0.450000X-0.262500X-0.450000X0.262500X-0.450000X0*%
%ADD17RoundRect,0.150000X0.150000X-0.512500X0.150000X0.512500X-0.150000X0.512500X-0.150000X-0.512500X0*%
%ADD18RoundRect,0.250000X-0.250000X-0.475000X0.250000X-0.475000X0.250000X0.475000X-0.250000X0.475000X0*%
%ADD19R,2.000000X1.500000*%
%ADD20R,2.000000X3.800000*%
%ADD21RoundRect,0.250000X0.250000X0.475000X-0.250000X0.475000X-0.250000X-0.475000X0.250000X-0.475000X0*%
%ADD22R,1.400000X1.200000*%
%ADD23RoundRect,0.218750X0.218750X0.381250X-0.218750X0.381250X-0.218750X-0.381250X0.218750X-0.381250X0*%
%ADD24R,1.150000X0.600000*%
%ADD25R,1.150000X0.300000*%
%ADD26RoundRect,0.243750X-0.456250X0.243750X-0.456250X-0.243750X0.456250X-0.243750X0.456250X0.243750X0*%
%ADD27R,1.500000X0.800000*%
%ADD28R,0.950000X1.000000*%
%ADD29R,1.400000X1.300000*%
%ADD30R,1.900000X1.400000*%
%ADD31RoundRect,0.250000X0.450000X-0.262500X0.450000X0.262500X-0.450000X0.262500X-0.450000X-0.262500X0*%
%ADD32RoundRect,0.250000X-0.450000X0.262500X-0.450000X-0.262500X0.450000X-0.262500X0.450000X0.262500X0*%
%ADD33RoundRect,0.075000X-0.662500X-0.075000X0.662500X-0.075000X0.662500X0.075000X-0.662500X0.075000X0*%
%ADD34RoundRect,0.075000X-0.075000X-0.662500X0.075000X-0.662500X0.075000X0.662500X-0.075000X0.662500X0*%
%ADD35RoundRect,0.218750X0.381250X-0.218750X0.381250X0.218750X-0.381250X0.218750X-0.381250X-0.218750X0*%
%ADD36RoundRect,0.075000X-0.075000X0.662500X-0.075000X-0.662500X0.075000X-0.662500X0.075000X0.662500X0*%
%ADD37RoundRect,0.075000X-0.662500X0.075000X-0.662500X-0.075000X0.662500X-0.075000X0.662500X0.075000X0*%
G04 APERTURE END LIST*
D10*
%TO.C,R31*%
X85000000Y-68693750D03*
X86825000Y-68693750D03*
%TD*%
D11*
%TO.C,D18*%
X77575000Y-68793750D03*
X79450000Y-68793750D03*
%TD*%
D12*
%TO.C,D15*%
X79450000Y-77243750D03*
X77575000Y-77243750D03*
%TD*%
D13*
%TO.C,C5*%
X126180000Y-48970000D03*
X126180000Y-47070000D03*
%TD*%
D14*
%TO.C,SW1*%
X139704999Y-46699999D03*
X139704999Y-43299999D03*
%TD*%
D15*
%TO.C,C15*%
X75612500Y-43993750D03*
X75612500Y-45893750D03*
%TD*%
D16*
%TO.C,R24*%
X86825000Y-31993750D03*
X85000000Y-31993750D03*
%TD*%
D10*
%TO.C,R14*%
X71800000Y-44743750D03*
X73625000Y-44743750D03*
%TD*%
D17*
%TO.C,U5*%
X157850000Y-56637500D03*
X158800000Y-56637500D03*
X159750000Y-56637500D03*
X159750000Y-54362500D03*
X158800000Y-54362500D03*
X157850000Y-54362500D03*
%TD*%
D10*
%TO.C,R47*%
X81287500Y-74406250D03*
X83112500Y-74406250D03*
%TD*%
D18*
%TO.C,C46*%
X166450000Y-65000000D03*
X168350000Y-65000000D03*
%TD*%
D10*
%TO.C,R11*%
X71800000Y-50743750D03*
X73625000Y-50743750D03*
%TD*%
D16*
%TO.C,R37*%
X111312500Y-60200000D03*
X109487500Y-60200000D03*
%TD*%
D10*
%TO.C,R43*%
X81287500Y-40050000D03*
X83112500Y-40050000D03*
%TD*%
D13*
%TO.C,C1*%
X128280000Y-48970000D03*
X128280000Y-47070000D03*
%TD*%
D11*
%TO.C,D2*%
X134742500Y-46820000D03*
X136617500Y-46820000D03*
%TD*%
D10*
%TO.C,R32*%
X71800000Y-73100000D03*
X73625000Y-73100000D03*
%TD*%
D19*
%TO.C,U2*%
X143449999Y-69599999D03*
X143449999Y-67299999D03*
D20*
X137149999Y-67299999D03*
D19*
X143449999Y-64999999D03*
%TD*%
D13*
%TO.C,C8*%
X126480000Y-44770000D03*
X126480000Y-42870000D03*
%TD*%
D11*
%TO.C,D16*%
X77575000Y-79943750D03*
X79450000Y-79943750D03*
%TD*%
D15*
%TO.C,C40*%
X101800000Y-65550000D03*
X101800000Y-67450000D03*
%TD*%
D19*
%TO.C,U4*%
X143399999Y-79656249D03*
X143399999Y-77356249D03*
D20*
X137099999Y-77356249D03*
D19*
X143399999Y-75056249D03*
%TD*%
D13*
%TO.C,C47*%
X134450000Y-76406250D03*
X134450000Y-74506250D03*
%TD*%
D18*
%TO.C,C6*%
X135950000Y-53300000D03*
X137850000Y-53300000D03*
%TD*%
D21*
%TO.C,C31*%
X99950000Y-67600000D03*
X98050000Y-67600000D03*
%TD*%
D11*
%TO.C,D6*%
X77575000Y-52143750D03*
X79450000Y-52143750D03*
%TD*%
D22*
%TO.C,Y1*%
X130979999Y-42969999D03*
X128779999Y-42969999D03*
X128779999Y-44669999D03*
X130979999Y-44669999D03*
%TD*%
D18*
%TO.C,C37*%
X105250000Y-63600000D03*
X107150000Y-63600000D03*
%TD*%
%TO.C,C24*%
X81250000Y-77450000D03*
X83150000Y-77450000D03*
%TD*%
D23*
%TO.C,FB1*%
X147812500Y-72556250D03*
X145687500Y-72556250D03*
%TD*%
D10*
%TO.C,R36*%
X94087500Y-45800000D03*
X95912500Y-45800000D03*
%TD*%
%TO.C,R20*%
X71800000Y-38743750D03*
X73625000Y-38743750D03*
%TD*%
D16*
%TO.C,R35*%
X107925000Y-66100000D03*
X106100000Y-66100000D03*
%TD*%
D10*
%TO.C,R42*%
X81287500Y-63000000D03*
X83112500Y-63000000D03*
%TD*%
D11*
%TO.C,D12*%
X77575000Y-40143750D03*
X79450000Y-40143750D03*
%TD*%
D12*
%TO.C,D5*%
X79450000Y-49443750D03*
X77575000Y-49443750D03*
%TD*%
D15*
%TO.C,C23*%
X75612500Y-77793750D03*
X75612500Y-79693750D03*
%TD*%
%TO.C,C10*%
X146000000Y-68260000D03*
X146000000Y-70160000D03*
%TD*%
D10*
%TO.C,R29*%
X71800000Y-67393750D03*
X73625000Y-67393750D03*
%TD*%
D15*
%TO.C,C7*%
X133280000Y-42870000D03*
X133280000Y-44770000D03*
%TD*%
D24*
%TO.C,J1*%
X166424999Y-59199999D03*
X166424999Y-58399999D03*
D25*
X166424999Y-57249999D03*
X166424999Y-56249999D03*
X166424999Y-55749999D03*
X166424999Y-54749999D03*
D24*
X166424999Y-53599999D03*
X166424999Y-52799999D03*
X166424999Y-52799999D03*
X166424999Y-53599999D03*
D25*
X166424999Y-54249999D03*
X166424999Y-55249999D03*
X166424999Y-56749999D03*
X166424999Y-57749999D03*
D24*
X166424999Y-58399999D03*
X166424999Y-59199999D03*
%TD*%
D10*
%TO.C,R13*%
X85000000Y-52043750D03*
X86825000Y-52043750D03*
%TD*%
D11*
%TO.C,D8*%
X77575000Y-46143750D03*
X79450000Y-46143750D03*
%TD*%
D12*
%TO.C,D17*%
X79450000Y-66093750D03*
X77575000Y-66093750D03*
%TD*%
D10*
%TO.C,R17*%
X71800000Y-61693750D03*
X73625000Y-61693750D03*
%TD*%
D26*
%TO.C,D22*%
X165300000Y-40862500D03*
X165300000Y-42737500D03*
%TD*%
D10*
%TO.C,R45*%
X81287500Y-79850000D03*
X83112500Y-79850000D03*
%TD*%
D18*
%TO.C,C30*%
X94050000Y-47900000D03*
X95950000Y-47900000D03*
%TD*%
D10*
%TO.C,R23*%
X71800000Y-33093750D03*
X73625000Y-33093750D03*
%TD*%
D27*
%TO.C,J3*%
X167659999Y-71659999D03*
X167259999Y-72759999D03*
X167659999Y-73859999D03*
X167859999Y-74959999D03*
X167659999Y-76059999D03*
X167859999Y-77159999D03*
X167659999Y-78259999D03*
X167659999Y-79359999D03*
D28*
X156574999Y-77159999D03*
D29*
X156799999Y-78549999D03*
X156799999Y-72849999D03*
D30*
X170949999Y-66999999D03*
X169949999Y-80149999D03*
%TD*%
D16*
%TO.C,R15*%
X86825000Y-43643750D03*
X85000000Y-43643750D03*
%TD*%
D12*
%TO.C,D3*%
X79450000Y-54593750D03*
X77575000Y-54593750D03*
%TD*%
D10*
%TO.C,R46*%
X81287500Y-68700000D03*
X83112500Y-68700000D03*
%TD*%
D11*
%TO.C,D1*%
X131142500Y-46820000D03*
X133017500Y-46820000D03*
%TD*%
D12*
%TO.C,D9*%
X79450000Y-60393750D03*
X77575000Y-60393750D03*
%TD*%
D10*
%TO.C,R8*%
X71800000Y-55893750D03*
X73625000Y-55893750D03*
%TD*%
D16*
%TO.C,R30*%
X86825000Y-66293750D03*
X85000000Y-66293750D03*
%TD*%
D31*
%TO.C,R48*%
X165300000Y-46312500D03*
X165300000Y-44487500D03*
%TD*%
D18*
%TO.C,C20*%
X81250000Y-37650000D03*
X83150000Y-37650000D03*
%TD*%
D10*
%TO.C,R5*%
X134767500Y-48920000D03*
X136592500Y-48920000D03*
%TD*%
D21*
%TO.C,C43*%
X96350000Y-67600000D03*
X94450000Y-67600000D03*
%TD*%
D11*
%TO.C,D14*%
X77575000Y-34493750D03*
X79450000Y-34493750D03*
%TD*%
D12*
%TO.C,D11*%
X79450000Y-37443750D03*
X77575000Y-37443750D03*
%TD*%
D10*
%TO.C,R26*%
X71800000Y-78543750D03*
X73625000Y-78543750D03*
%TD*%
D18*
%TO.C,C16*%
X81250000Y-43650000D03*
X83150000Y-43650000D03*
%TD*%
D10*
%TO.C,R2*%
X131167500Y-48920000D03*
X132992500Y-48920000D03*
%TD*%
D12*
%TO.C,D19*%
X79450000Y-71800000D03*
X77575000Y-71800000D03*
%TD*%
D10*
%TO.C,R28*%
X85000000Y-79843750D03*
X86825000Y-79843750D03*
%TD*%
D15*
%TO.C,C36*%
X103900000Y-65550000D03*
X103900000Y-67450000D03*
%TD*%
D18*
%TO.C,C39*%
X102350000Y-48200000D03*
X104250000Y-48200000D03*
%TD*%
%TO.C,C14*%
X81250000Y-49650000D03*
X83150000Y-49650000D03*
%TD*%
D10*
%TO.C,R22*%
X85000000Y-40043750D03*
X86825000Y-40043750D03*
%TD*%
D15*
%TO.C,C9*%
X146000000Y-64460000D03*
X146000000Y-66360000D03*
%TD*%
%TO.C,C13*%
X75612500Y-49993750D03*
X75612500Y-51893750D03*
%TD*%
%TO.C,C17*%
X75612500Y-60943750D03*
X75612500Y-62843750D03*
%TD*%
D18*
%TO.C,C28*%
X81250000Y-72006250D03*
X83150000Y-72006250D03*
%TD*%
D12*
%TO.C,D7*%
X79450000Y-43443750D03*
X77575000Y-43443750D03*
%TD*%
%TO.C,D13*%
X79450000Y-31793750D03*
X77575000Y-31793750D03*
%TD*%
D32*
%TO.C,R7*%
X164125000Y-52495000D03*
X164125000Y-54320000D03*
%TD*%
D15*
%TO.C,C4*%
X124580000Y-59670000D03*
X124580000Y-61570000D03*
%TD*%
D16*
%TO.C,R18*%
X86825000Y-60593750D03*
X85000000Y-60593750D03*
%TD*%
D15*
%TO.C,C25*%
X75612500Y-66643750D03*
X75612500Y-68543750D03*
%TD*%
D10*
%TO.C,R44*%
X81287500Y-34400000D03*
X83112500Y-34400000D03*
%TD*%
%TO.C,R40*%
X81287500Y-52050000D03*
X83112500Y-52050000D03*
%TD*%
D16*
%TO.C,R38*%
X111312500Y-56900000D03*
X109487500Y-56900000D03*
%TD*%
D11*
%TO.C,D4*%
X77575000Y-57293750D03*
X79450000Y-57293750D03*
%TD*%
D18*
%TO.C,C12*%
X81250000Y-54800000D03*
X83150000Y-54800000D03*
%TD*%
D26*
%TO.C,D21*%
X60300000Y-83062500D03*
X60300000Y-84937500D03*
%TD*%
D11*
%TO.C,D10*%
X77575000Y-63093750D03*
X79450000Y-63093750D03*
%TD*%
D13*
%TO.C,C35*%
X100100000Y-48450000D03*
X100100000Y-46550000D03*
%TD*%
D18*
%TO.C,C26*%
X81250000Y-66300000D03*
X83150000Y-66300000D03*
%TD*%
D11*
%TO.C,D20*%
X77575000Y-74500000D03*
X79450000Y-74500000D03*
%TD*%
D10*
%TO.C,R34*%
X85000000Y-74400000D03*
X86825000Y-74400000D03*
%TD*%
D18*
%TO.C,C22*%
X81250000Y-32000000D03*
X83150000Y-32000000D03*
%TD*%
%TO.C,C33*%
X106850000Y-51200000D03*
X108750000Y-51200000D03*
%TD*%
D21*
%TO.C,C29*%
X94950000Y-50200000D03*
X93050000Y-50200000D03*
%TD*%
D10*
%TO.C,R39*%
X81287500Y-57200000D03*
X83112500Y-57200000D03*
%TD*%
D13*
%TO.C,C34*%
X98000000Y-48450000D03*
X98000000Y-46550000D03*
%TD*%
D15*
%TO.C,C45*%
X145950000Y-78256250D03*
X145950000Y-80156250D03*
%TD*%
D16*
%TO.C,R3*%
X137812500Y-55400000D03*
X135987500Y-55400000D03*
%TD*%
%TO.C,R1*%
X140617500Y-48700000D03*
X138792500Y-48700000D03*
%TD*%
D21*
%TO.C,C42*%
X96350000Y-65500000D03*
X94450000Y-65500000D03*
%TD*%
D15*
%TO.C,C27*%
X75612500Y-72350000D03*
X75612500Y-74250000D03*
%TD*%
D10*
%TO.C,R25*%
X85000000Y-34393750D03*
X86825000Y-34393750D03*
%TD*%
D18*
%TO.C,C18*%
X81250000Y-60600000D03*
X83150000Y-60600000D03*
%TD*%
D21*
%TO.C,C41*%
X99950000Y-65500000D03*
X98050000Y-65500000D03*
%TD*%
D16*
%TO.C,R21*%
X86825000Y-37643750D03*
X85000000Y-37643750D03*
%TD*%
D10*
%TO.C,R19*%
X85000000Y-62993750D03*
X86825000Y-62993750D03*
%TD*%
D16*
%TO.C,R12*%
X86825000Y-49643750D03*
X85000000Y-49643750D03*
%TD*%
%TO.C,R9*%
X86825000Y-54793750D03*
X85000000Y-54793750D03*
%TD*%
D15*
%TO.C,C19*%
X75612500Y-37993750D03*
X75612500Y-39893750D03*
%TD*%
D18*
%TO.C,C2*%
X135950000Y-51100000D03*
X137850000Y-51100000D03*
%TD*%
%TO.C,C38*%
X102350000Y-46100000D03*
X104250000Y-46100000D03*
%TD*%
D16*
%TO.C,R6*%
X164327500Y-57300000D03*
X162502500Y-57300000D03*
%TD*%
D10*
%TO.C,R10*%
X85000000Y-57193750D03*
X86825000Y-57193750D03*
%TD*%
D15*
%TO.C,C21*%
X75612500Y-32343750D03*
X75612500Y-34243750D03*
%TD*%
D18*
%TO.C,C32*%
X106850000Y-49100000D03*
X108750000Y-49100000D03*
%TD*%
D33*
%TO.C,U3*%
X94387500Y-52912500D03*
X94387500Y-53412500D03*
X94387500Y-53912500D03*
X94387500Y-54412500D03*
X94387500Y-54912500D03*
X94387500Y-55412500D03*
X94387500Y-55912500D03*
X94387500Y-56412500D03*
X94387500Y-56912500D03*
X94387500Y-57412500D03*
X94387500Y-57912500D03*
X94387500Y-58412500D03*
X94387500Y-58912500D03*
X94387500Y-59412500D03*
X94387500Y-59912500D03*
X94387500Y-60412500D03*
D34*
X96300000Y-62325000D03*
X96800000Y-62325000D03*
X97300000Y-62325000D03*
X97800000Y-62325000D03*
X98300000Y-62325000D03*
X98800000Y-62325000D03*
X99300000Y-62325000D03*
X99800000Y-62325000D03*
X100300000Y-62325000D03*
X100800000Y-62325000D03*
X101300000Y-62325000D03*
X101800000Y-62325000D03*
X102300000Y-62325000D03*
X102800000Y-62325000D03*
X103300000Y-62325000D03*
X103800000Y-62325000D03*
D33*
X105712500Y-60412500D03*
X105712500Y-59912500D03*
X105712500Y-59412500D03*
X105712500Y-58912500D03*
X105712500Y-58412500D03*
X105712500Y-57912500D03*
X105712500Y-57412500D03*
X105712500Y-56912500D03*
X105712500Y-56412500D03*
X105712500Y-55912500D03*
X105712500Y-55412500D03*
X105712500Y-54912500D03*
X105712500Y-54412500D03*
X105712500Y-53912500D03*
X105712500Y-53412500D03*
X105712500Y-52912500D03*
D34*
X103800000Y-51000000D03*
X103300000Y-51000000D03*
X102800000Y-51000000D03*
X102300000Y-51000000D03*
X101800000Y-51000000D03*
X101300000Y-51000000D03*
X100800000Y-51000000D03*
X100300000Y-51000000D03*
X99800000Y-51000000D03*
X99300000Y-51000000D03*
X98800000Y-51000000D03*
X98300000Y-51000000D03*
X97800000Y-51000000D03*
X97300000Y-51000000D03*
X96800000Y-51000000D03*
X96300000Y-51000000D03*
%TD*%
D10*
%TO.C,R16*%
X85000000Y-46043750D03*
X86825000Y-46043750D03*
%TD*%
D15*
%TO.C,C11*%
X75612500Y-55143750D03*
X75612500Y-57043750D03*
%TD*%
D10*
%TO.C,R41*%
X81287500Y-46050000D03*
X83112500Y-46050000D03*
%TD*%
D15*
%TO.C,C44*%
X145950000Y-74506250D03*
X145950000Y-76406250D03*
%TD*%
D18*
%TO.C,C3*%
X134350000Y-59800000D03*
X136250000Y-59800000D03*
%TD*%
D35*
%TO.C,FB2*%
X134450000Y-80218750D03*
X134450000Y-78093750D03*
%TD*%
D31*
%TO.C,R4*%
X162015000Y-54325000D03*
X162015000Y-52500000D03*
%TD*%
D16*
%TO.C,R33*%
X86825000Y-72000000D03*
X85000000Y-72000000D03*
%TD*%
D36*
%TO.C,U1*%
X132330000Y-51357500D03*
X131830000Y-51357500D03*
X131330000Y-51357500D03*
X130830000Y-51357500D03*
X130330000Y-51357500D03*
X129830000Y-51357500D03*
X129330000Y-51357500D03*
X128830000Y-51357500D03*
X128330000Y-51357500D03*
X127830000Y-51357500D03*
X127330000Y-51357500D03*
X126830000Y-51357500D03*
D37*
X125417500Y-52770000D03*
X125417500Y-53270000D03*
X125417500Y-53770000D03*
X125417500Y-54270000D03*
X125417500Y-54770000D03*
X125417500Y-55270000D03*
X125417500Y-55770000D03*
X125417500Y-56270000D03*
X125417500Y-56770000D03*
X125417500Y-57270000D03*
X125417500Y-57770000D03*
X125417500Y-58270000D03*
D36*
X126830000Y-59682500D03*
X127330000Y-59682500D03*
X127830000Y-59682500D03*
X128330000Y-59682500D03*
X128830000Y-59682500D03*
X129330000Y-59682500D03*
X129830000Y-59682500D03*
X130330000Y-59682500D03*
X130830000Y-59682500D03*
X131330000Y-59682500D03*
X131830000Y-59682500D03*
X132330000Y-59682500D03*
D37*
X133742500Y-58270000D03*
X133742500Y-57770000D03*
X133742500Y-57270000D03*
X133742500Y-56770000D03*
X133742500Y-56270000D03*
X133742500Y-55770000D03*
X133742500Y-55270000D03*
X133742500Y-54770000D03*
X133742500Y-54270000D03*
X133742500Y-53770000D03*
X133742500Y-53270000D03*
X133742500Y-52770000D03*
%TD*%
D16*
%TO.C,R27*%
X86825000Y-77443750D03*
X85000000Y-77443750D03*
%TD*%
M02*
